<?xml version="1.0" standalone="no"?>
<!DOCTYPE svg PUBLIC "-//W3C//DTD SVG 20010904//EN"
 "http://www.w3.org/TR/2001/REC-SVG-20010904/DTD/svg10.dtd">
<svg version="1.0" xmlns="http://www.w3.org/2000/svg"
 width="452.000000pt" height="452.000000pt" viewBox="0 0 452.000000 452.000000"
 preserveAspectRatio="xMidYMid meet">
<metadata>
Created by potrace 1.16, written by Peter Selinger 2001-2019
</metadata>
<g transform="translate(0.000000,452.000000) scale(0.100000,-0.100000)"
fill="#000000" stroke="none">
<path d="M1565 4394 c-231 -120 -423 -315 -540 -552 -24 -48 -54 -123 -68
-167 -39 -124 -157 -623 -157 -662 0 -26 8 -42 31 -64 l31 -29 -19 -78 c-18
-73 -20 -77 -48 -80 -58 -7 -70 -31 -119 -232 -25 -103 -46 -201 -46 -218 0
-18 10 -42 23 -56 19 -22 63 -35 337 -101 173 -41 324 -77 334 -80 34 -7 86
22 100 57 7 18 33 115 57 216 41 176 42 183 26 216 -9 19 -25 37 -37 41 -13 4
-19 12 -16 23 3 9 12 47 21 83 l17 66 76 -18 c43 -10 408 -99 812 -199 404
-100 844 -208 977 -241 272 -66 331 -72 384 -36 56 37 75 79 113 238 42 175
44 219 13 274 -45 80 109 36 -1562 447 -638 156 -650 160 -691 223 -35 53 -30
87 66 487 64 265 91 392 86 411 -19 77 -90 88 -201 31z m-62 -356 c-104 -437
-105 -441 -101 -513 6 -96 42 -168 117 -237 32 -30 79 -62 104 -72 26 -10 47
-23 47 -29 0 -7 -13 -61 -29 -122 -31 -124 -17 -113 -133 -99 -47 6 -64 3
-103 -16 -27 -13 -56 -37 -70 -59 -24 -36 -75 -228 -75 -282 0 -30 31 -103 49
-113 8 -5 -33 -194 -45 -205 -4 -5 -406 90 -416 98 -6 5 7 76 33 174 5 21 16
37 24 37 21 0 85 60 97 89 5 14 20 74 34 132 25 114 22 155 -17 211 l-19 27
73 298 c92 376 138 482 273 633 36 40 166 148 180 150 1 0 -9 -46 -23 -102z
m1280 -1112 c499 -123 910 -225 912 -227 4 -4 -52 -239 -58 -246 -5 -4 -1826
443 -1833 449 -2 2 6 42 17 89 31 132 39 159 47 159 4 0 416 -101 915 -224z"/>
<path d="M1029 1887 c-27 -21 -39 -54 -39 -111 l0 -56 -245 0 -246 0 -24 -25
c-21 -20 -25 -33 -25 -87 0 -178 113 -366 271 -456 58 -33 189 -72 241 -72 28
0 28 -1 28 -59 0 -49 4 -65 24 -88 l24 -28 512 -5 511 -5 -31 -62 c-54 -107
-160 -179 -284 -192 -34 -4 -70 -12 -81 -18 -11 -6 -42 -22 -69 -34 -27 -12
-66 -40 -87 -61 -55 -57 -69 -109 -69 -254 0 -117 1 -124 26 -153 l26 -31 223
0 222 0 39 31 c153 124 441 176 666 121 95 -23 201 -72 262 -121 l39 -31 221
0 c232 1 241 2 264 47 15 27 16 244 2 295 -6 21 -25 57 -43 80 -43 56 -175
123 -258 131 -118 10 -235 93 -284 200 l-25 52 253 6 c236 6 258 8 342 33 254
77 447 239 560 471 64 132 84 207 92 342 6 99 5 102 -20 127 l-26 26 -1488 0
c-1154 -1 -1492 -3 -1504 -13z m2826 -214 c-11 -63 -45 -155 -77 -213 -91
-163 -223 -273 -404 -337 l-79 -28 -1057 -3 -1058 -3 0 311 0 310 1341 0 1341
0 -7 -37z m-2865 -274 l0 -132 -42 7 c-68 10 -162 62 -207 112 -33 37 -81 120
-81 139 0 3 74 5 165 5 l165 0 0 -131z m1644 -537 c9 -58 71 -174 124 -233 92
-103 215 -163 360 -178 75 -8 89 -12 109 -36 18 -20 23 -38 23 -81 l0 -54
-119 0 -119 0 -61 41 c-72 48 -214 101 -321 120 -92 16 -293 16 -380 0 -126
-23 -272 -81 -347 -137 -29 -22 -41 -24 -152 -24 l-121 0 0 45 c0 85 39 125
122 125 204 0 423 173 487 385 7 22 14 46 16 53 3 9 50 12 188 12 l184 0 7
-38z"/>
</g>
</svg>
